<svg width="22" height="18" viewBox="0 0 22 18" fill="none" xmlns="http://www.w3.org/2000/svg">
<path d="M9.82144 12.3813L13.8692 8.28542L13.9278 8.53752C14.7207 11.3523 12.1333 13.1204 10.1275 12.4886L9.82144 12.3813Z" fill="#2A3B53"/>
<path d="M11.0082 14.0731C13.6604 14.0731 15.5821 11.8944 15.5821 9.52815C15.5821 8.6145 15.2411 7.74351 15.0249 7.20826L17.8 4.57518C19.4163 5.70033 21.1861 7.64622 22 9.4509C20.077 13.2284 15.877 16.8225 10.6883 16.8225C9.34295 16.8225 7.74602 16.388 6.4391 15.7903L8.69514 13.4893C9.415 13.8923 10.3884 14.0731 11.0082 14.0731ZM0.981828 16.7921L3.17274 14.6321L3.73227 14.0731C2.14674 12.851 0.821702 11.3994 0 9.50348C1.95828 5.42937 5.78647 2.31131 10.5912 1.96064C12.2328 1.96064 13.4313 2.14259 15.0249 2.78851L15.4333 2.4508L18.0143 0L19.2395 1.20314L2.20701 18L0.981828 16.7921ZM6.77053 11.1329L7.93487 9.96862C7.89162 9.76492 7.88721 9.52436 7.88721 9.3112C7.97453 7.72968 9.23839 6.37081 11.0817 6.37081C11.298 6.37081 11.5046 6.39923 11.7064 6.44186L12.9058 5.31413C12.2668 5.0015 11.4673 4.82981 10.5912 4.91728C8.12525 5.31413 6.62539 6.82095 6.41183 9.3906C6.41183 10.1641 6.5543 10.4852 6.77053 11.1329Z" fill="#2A3B53"/>
</svg>
