<svg width="22" height="15" viewBox="0 0 22 15" fill="none" xmlns="http://www.w3.org/2000/svg">
<path d="M21.9065 7.11753C19.6621 3.15003 15.4814 0 11 0C6.51859 0 2.33789 3.15003 0.0935156 7.11753C-0.0311719 7.35003 -0.0311719 7.63503 0.0935156 7.86753C2.33789 11.8425 6.51859 15 11 15C15.4814 15 19.6621 11.8425 21.9065 7.86753C22.0312 7.63503 22.0312 7.35003 21.9065 7.11753ZM11 12.1875C8.46958 12.1875 6.4159 10.0875 6.4159 7.50003C6.4159 4.91253 8.46958 2.81253 11 2.81253C13.5304 2.81253 15.5841 4.91253 15.5841 7.50003C15.5841 10.0875 13.5304 12.1875 11 12.1875Z" fill="#2A3B53"/>
<path d="M11 10.6869C12.7216 10.6869 14.1172 9.2598 14.1172 7.49939C14.1172 5.73898 12.7216 4.31189 11 4.31189C9.27842 4.31189 7.88281 5.73898 7.88281 7.49939C7.88281 9.2598 9.27842 10.6869 11 10.6869Z" fill="#2A3B53"/>
</svg>
